<?xml version="1.0" encoding="UTF-8" standalone="no"?>
<svg xmlns:dc="http://purl.org/dc/elements/1.1/" xmlns:cc="http://creativecommons.org/ns#" xmlns:rdf="http://www.w3.org/1999/02/22-rdf-syntax-ns#" xmlns:svg="http://www.w3.org/2000/svg" xmlns="http://www.w3.org/2000/svg" xmlns:sodipodi="http://sodipodi.sourceforge.net/DTD/sodipodi-0.dtd" xmlns:inkscape="http://www.inkscape.org/namespaces/inkscape" width="64" height="64" viewBox="0 0 64.000001 64.000001" id="svg4364" version="1.1" inkscape:version="0.91 r13725" sodipodi:docname="1 heart love like feeling attract valentine.svg">
  <defs id="defs4366"/>
  <sodipodi:namedview id="base" pagecolor="#ffffff" bordercolor="#666666" borderopacity="1.0" inkscape:pageopacity="0.0" inkscape:pageshadow="2" inkscape:zoom="5.6" inkscape:cx="20.687564" inkscape:cy="40.421445" inkscape:document-units="px" inkscape:current-layer="layer1" showgrid="true" units="px" inkscape:snap-bbox="true" inkscape:bbox-paths="true" inkscape:bbox-nodes="true" inkscape:snap-bbox-edge-midpoints="true" inkscape:snap-bbox-midpoints="true" inkscape:window-width="1366" inkscape:window-height="705" inkscape:window-x="-8" inkscape:window-y="-8" inkscape:window-maximized="1">
    <inkscape:grid type="xygrid" id="grid4372"/>
  </sodipodi:namedview>
  
  <g inkscape:label="Layer 1" inkscape:groupmode="layer" id="layer1" transform="translate(0,-988.36216)">
    <g id="g12066" transform="matrix(1.9993263,0,0,1.9993263,2513.1596,-6390.9643)">
      <path inkscape:connector-curvature="0" id="path12068" d="m -1250.6742,3699.244 c -2.4367,2.4458 -2.4367,6.3836 0,8.8295 l 0.8796,0.883 8.7967,8.8296 8.7967,-8.8296 0.8797,-0.883 c 2.4367,-2.4459 2.4367,-6.3837 0,-8.8295 -2.4367,-2.4459 -6.36,-2.4459 -8.7967,0 l -0.8797,0.8829 -0.8796,-0.8829 c -2.4367,-2.4459 -6.3601,-2.4459 -8.7967,0 z" style="fill:#ff143a;fill-opacity:1;fill-rule:evenodd;stroke:none;stroke-width:1px;stroke-linecap:round;stroke-linejoin:round;stroke-opacity:1"/>
      <path id="path12070" style="opacity:0.4;fill:none;fill-rule:evenodd;stroke:#ffffff;stroke-width:1.000337;stroke-linecap:round;stroke-linejoin:round;stroke-opacity:1" sodipodi:type="arc" sodipodi:cx="-1246.2478" sodipodi:cy="3703.6643" sodipodi:rx="4.25" sodipodi:ry="4.25" sodipodi:start="2.6179939" sodipodi:end="4.712389" d="m -1249.9284,3705.7893 a 4.25,4.25 0 0 1 0,-4.25 4.25,4.25 0 0 1 3.6806,-2.125" sodipodi:open="true"/>
      <path style="fill:#d30045;fill-opacity:1;fill-rule:evenodd;stroke:none;stroke-width:1px;stroke-linecap:round;stroke-linejoin:round;stroke-opacity:1" d="m -1246.2754,2677.0469 c -1.59,0 -3.1801,0.611 -4.3984,1.834 -0.2528,0.2537 -0.4735,0.528 -0.6739,0.8105 0.01,-0.01 0.01,-0.012 0.016,-0.018 2.224,-2.2324 5.8052,-2.2324 8.0293,0 l 1.1862,1.1966 0.8027,-0.8067 c 0.1031,-0.1035 0.2117,-0.1971 0.3203,-0.291 l -0.8835,-0.8918 c -1.2183,-1.223 -2.8084,-1.834 -4.3984,-1.834 z m 10.5547,0 c -1.2963,0 -2.5887,0.4136 -3.6836,1.2265 1.9566,-0.6267 4.1786,-0.1632 5.7363,1.4004 2.2242,2.2324 2.2242,5.8261 0,8.0586 l -0.8027,0.8067 -7.6895,7.7187 1.1622,1.166 8.7968,-8.83 0.8789,-0.8829 c 2.4367,-2.4459 2.4367,-6.3842 0,-8.83 -1.2183,-1.223 -2.8084,-1.834 -4.3984,-1.834 z" transform="translate(0,1020.3622)" id="path12072" inkscape:connector-curvature="0" sodipodi:nodetypes="sccccccccsscccccccccs"/>
    </g>
  </g>

	<metadata>
		<rdf:RDF xmlns:rdf="http://www.w3.org/1999/02/22-rdf-syntax-ns#" xmlns:rdfs="http://www.w3.org/2000/01/rdf-schema#" xmlns:dc="http://purl.org/dc/elements/1.1/">
			<rdf:Description about="https://iconscout.com/legal#licenses" dc:title="1 heart love like feeling attract valentine" dc:description="1 heart love like feeling attract valentine" dc:publisher="Iconscout" dc:date="2017-01-24" dc:format="image/svg+xml" dc:language="en">
				<dc:creator>
					<rdf:Bag>
						<rdf:li>Jemis Mali</rdf:li>
					</rdf:Bag>
				</dc:creator>
			</rdf:Description>
		</rdf:RDF>
    </metadata></svg>
